# xmcd
#
# Track frame offsets:
#	150
#	13065
#	26910
#	39665
#	52897
#	66245
#	80165
#	92357
#	105415
#	117260
#	129055
#	141282
#	152782
#	166112
#	178730
#	191120
#	205962
#	219052
#	231250
#	244130
#	257140
#	269170
#	282530
#	293522
#
# Disc length: 4073 seconds
#
# Revision: 1
# Processed by: cddbd v1.4PL0 Copyright (c) Steve Scherf et al.
# Submitted via: audiograbber 1.80
#
DISCID=5f0fe718
DTITLE=little jimmy dickens - country boy disc 1
DYEAR=1900
DGENRE=
TTITLE0=take an old cold 'tater (and wait) 1949 
TTITLE1=pennies for papa 1949
TTITLE2=crazy worried mind 1997
TTITLE3=golden haired darlin' 1997
TTITLE4=country boy 1949
TTITLE5=i'm fading fast with the time 1949
TTITLE6=i'll be back a-sunday 1949
TTITLE7=my heart's bouquet 1949
TTITLE8=i'm in love up to my ears 1967
TTITLE9=a rose from the bride's bouquet 1997
TTITLE10=beautiful morning glory 1997
TTITLE11=lovin' lies 1997
TTITLE12=a rose from the bride's bouquet 1950
TTITLE13=lovin' lies 1950
TTITLE14=a-sleepin' at the foot of the bed 1949 
TTITLE15=sign by the highway 1951
TTITLE16=be careful of stones that you throw 1965
TTITLE17=i'm in love up to my ears 1949
TTITLE18=then i had to turn around and get married 1950
TTITLE19=if it ain't one thing it's another 1950
TTITLE20=f-o-o-l-i-s-h m-e 1950
TTITLE21=hillbilly fever 1950
TTITLE22=walk, chicken, walk ('cause you're too fat to fly) 1950
TTITLE23=just when i needed you 1950 
EXTD=
EXTT0=
EXTT1=
EXTT2=
EXTT3=
EXTT4=
EXTT5=
EXTT6=
EXTT7=
EXTT8=
EXTT9=
EXTT10=
EXTT11=
EXTT12=
EXTT13=
EXTT14=
EXTT15=
EXTT16=
EXTT17=
EXTT18=
EXTT19=
EXTT20=
EXTT21=
EXTT22=
EXTT23=
PLAYORDER=
